<svg height="40" viewBox="0 0 110 40" width="110" xmlns="http://www.w3.org/2000/svg" xmlns:xlink="http://www.w3.org/1999/xlink"><linearGradient id="a"><stop offset="0" stop-color="#37f"></stop><stop offset="1" stop-color="#175ce6"></stop></linearGradient><linearGradient id="b" x1="0%" x2="0%" xlink:href="#a" y1="0%" y2="100%"></linearGradient><linearGradient id="c" x1="50%" x2="50%" xlink:href="#a" y1="100%" y2="0%"></linearGradient><g fill="none"><g fill="#061b3b" transform="translate(0 10.404982)"><path d="m41.450674 29.5712765v-19.9346269c0-5.2977272-4.484689-9.5902695-9.9652116-9.5902695-5.504413 0-9.9652116 4.3154695-9.9652116 9.5902695 0 5.2749526 4.4848608 9.5904221 9.9652116 9.5904221 1.5901714 0 3.108156-.3651055 4.532126-1.050378l1.1393478-.5704668v11.9887908h4.2945971v-.0237412zm-9.9652116-14.4772063c-3.1320464 0-5.6706145-2.4434769-5.6706145-5.4574206s2.5385681-5.4573358 5.6706145-5.4573358c3.1322183 0 5.6706144 2.4433921 5.6706144 5.4573358s-2.5383961 5.4574206-5.6706144 5.4574206z"></path><path d="m9.96524595 19.2263934c5.50449895 0 9.96517725-4.3154695 9.96517725-9.5902526v-9.6361408h-4.2945972v9.6132475c0 3.0139437-2.5384305 5.4572511-5.67058005 5.4572511-3.13214953 0-5.67058007-2.4433074-5.67058007-5.4572511v-9.6132475h-4.29466588v9.6132475c0 5.2976764 4.48482646 9.6131459 9.96524595 9.6131459z"></path><path d="m62.9717841 0h-4.2937377v9.6132475c0 3.0139437-2.5392556 5.4574206-5.6714738 5.4574206-3.1322183 0-5.6706145-2.4434769-5.6706145-5.4574206v-9.6132475h-4.2945971v9.6132475c0 5.297846 4.4848608 9.5904222 9.9652116 9.5904222 5.4803507 0 9.9652115-4.3156391 9.9652115-9.5904222z"></path></g><path d="m70.7462991 25.646587c.2047011 0 .4542611.1197234.6582746.1561831.2925283.0510435.5876347.0858074.8844598.1036133.4982606.0296765 1.010271.0186538 1.5068129-.0313723.3709025-.0373076.7605392-.1129402 1.1211293-.2055308.2177634-.0559614.4422299-.1112444.6531183-.1892512.1711858-.063762.4534017-.1163318.5867754-.2445342-.4078553 0-.8062575.0781763-1.2201283.050026-.4241832-.0279806-.8457883-.1042916-1.2527842-.2265587-.7821952-.2352073-1.506641-.64186-2.1064787-1.1902814-1.1616913-1.0630964-1.7802632-2.6388329-1.640874-4.1993073.2607318-2.9272883 3.0400942-5.0523281 5.961424-4.8018755 1.7433105.1494169 3.3506692 1.1138856 4.244582 2.6047983.991365-.821903 3.7733056-3.1439098 3.7733056-3.1439098v-14.32603949l-4.6740933-.00254701s-.0008594 10.9274919-.0008594 10.9869127c-1.7201076-.5170322-3.4170123-.8124913-5.2249471-.5747742-1.7879975.2351734-3.5933542 1.0357941-5.0896828 2.204861-.7753203.6061804-1.4542196 1.2302005-2.0126359 2.0359086-.5463851.7887161-.9241625 1.6597973-1.2012222 2.5725102-.2555755.8404381-.4216051 1.7217448-.4224644 2.6047474 0 .7776935.4052771 1.6384811.786492 2.3032343.9954899 1.7371766 2.7250505 2.9969858 4.6697964 3.513187z" fill="#37f"></path><path d="m76.4181167 25.1310641c-.8784442.305583-2.8438149-.0525698-3.9426007-.6562743-1.1780193-.6477952-2.0334325-1.8499472-2.3603355-3.1328192-.0878272-.3430602-.1385298-.6952776-.1522797-1.0485126-.0128905-.3345811.0214842-1.0290109.0214842-1.0290109-.0696087-.4643097-.1557172-.8999605-.1789201-1.3710535-.0551713-1.1148014.1082802-2.2354871.4894951-3.2865604.5757754-1.5859282 1.6247179-2.9163165 2.8835176-4.039546-2.0504479.394782-3.8575234 1.571497-4.6560466 2.2634339-.7392268.6401472-1.3767048 1.3881133-1.8921527 2.2150528-.4896669.7844766-.8105543 1.6852681-1.0592549 2.5715436-.2065916.7378422-.3640275 2.1650267-.3184811 2.3186661 0 0 .1662014.8753715.3116062 1.2387812.1625921.4041089.4130114.7938036.6445247 1.1639965.9155689 1.4636442 2.3395388 2.5867719 3.9754285 3.1752142 1.1262855.4049568 2.2819613.543334 3.4745898.4465039 1.8861372-.1536394 2.7594252-.8294153 2.7594252-.8294153z" fill="url(#b)"></path><path d="m109.997856 20.5237475c.000858-2.8475858-.884633-5.1067463-2.562632-6.9244563-1.578999-1.7107222-3.753368-2.8424476-6.071594-3.1820483-2.7095822-.3964778-5.5381005.3056508-7.7227815 1.9399772-.6556965.4907134-1.28819 1.0162415-1.9301367 1.5239468-2.5177713 1.9883583-5.0355427 3.9759366-7.5533141 5.9634131-1.6348584 1.2905031-3.2527014 2.6072911-4.9073253 3.8738834-.5549788.4246281-1.1634101.7895641-1.803638 1.0731017-.3329185.1478737-.668587.2597964-1.0248802.3422123 0 0-2.7233318 1.0256192-4.8495759.6316851-2.4275379-.4500651-4.6362812-1.9705185-5.7275045-4.1584385-.2658879-.5331592-.4740265-1.2004562-.6031033-1.7810978.0146092 1.7293759.4155896 3.4333148 1.2899088 4.9427456.8045388 1.3898769 1.9523084 2.5648961 3.3094196 3.4402676 2.9410953 1.8965817 6.7004791 2.0519169 9.8687907.6018391 1.4593759-.6672969 2.6650668-1.7149616 3.9083979-2.6997121 1.3964703-1.1063394 2.7939717-2.2125091 4.1906139-3.3188484 2.6666136-2.1114395 5.3340866-4.2211831 7.9989814-6.3351832.7443831-.5900533 1.6150931-1.1716276 2.5409743-1.4254717.4106052-.1120754.617025-.1366984.617025-.1366984s1.1488009-.3854382 1.4559379-.4593072c1.268425-.304786 2.566928-.1986628 3.816274.1536733.29081.082348 1.607359.5408073 2.571912 1.2785986 1.307955 1.0009624 1.834575 1.9060104 2.122119 2.2609411.38448.4744846.549822 1.0578395.780305 1.6198273.098139.237751.285826.7751497.285826.7751497z" fill="#37f"></path><path d="m101.33888 14.2408628c-.818461.0950835-1.6238586.3158256-2.3723667.6537306.5317759-.0865875 1.2080967-.0653731 1.7304197.0110396.78907.1163149 1.559235.3854382 2.231259.8107955 1.090192.6902411 1.934262 1.8015152 2.245868 3.0445359.093671.3752803.143686.7607355.150561 1.1470385.006875.3632402-.042968.7921078-.042968.7921078.029218.5747063.099686 1.1775628.113436 1.6359373.033687 1.0936209-.061015 2.18792-.449105 3.2135393-.585057 1.54606-1.617671 2.8857413-2.847424 3.9902152.854554-.1646621 1.698623-.5085701 2.4791-.8845288.778757-.3761282 1.533453-.8618051 2.170243-1.44516.916429-.8395901 1.793154-1.8243406 2.291415-2.9713791.426761-.9823764.757273-1.9773017.891506-3.0410765.032656-.2623401.077343-.5418078.06789-.8066916-.006875-.2002739-.076483-.4075005-.133374-.5992954-.109311-.3684972-.252138-.7268195-.424183-1.0714059-.699524-1.4000517-1.866371-2.5470732-3.221592-3.33835-1.450782-.8455933-3.189968-1.3388673-4.880685-1.1410524z" fill="url(#c)"></path><path d="m105.281653 20.7006194c-.355434 2.5801583-2.657161 4.5896802-5.4330861 4.5896802-2.088432 0-3.962538-1.1417815-4.8884192-2.9001556l-3.6775722 2.8772623c1.8749654 2.8085825 5.101714 4.5438937 8.5659914 4.5438937.7830541 0 1.5420471-.0917428 2.2536021-.2742108 3.607104-3.2186266 3.654541-6.6672036 3.179484-8.8364698z" fill="#37f"></path></g></svg>